<?xml version="1.0" encoding="utf-8"?>
<!-- Generator: Adobe Illustrator 21.1.0, SVG Export Plug-In . SVG Version: 6.00 Build 0)  -->
<svg version="1.1" id="Camada_1" xmlns="http://www.w3.org/2000/svg" xmlns:xlink="http://www.w3.org/1999/xlink" x="0px" y="0px"
	 viewBox="0 0 500 101.6" style="enable-background:new 0 0 500 101.6;" xml:space="preserve">
<style type="text/css">
	.st0{fill-rule:evenodd;clip-rule:evenodd;fill:#FFFFFF;}
	.st1{fill-rule:evenodd;clip-rule:evenodd;fill:#FFDD00;}
</style>
<g>
	<path class="st0" d="M95.4,79v13.6c0,1.4-0.3,2.5-0.8,3.2c-0.5,0.6-1.5,0.9-3,0.9c-0.9,0-1.6-0.1-2-0.4c-0.5-0.2-0.9-0.5-1.1-0.9
		l-0.5-1.3l-0.1-1.6V79h-5.6v13.6c0,3,0.8,5.3,2.5,6.7c1.6,1.5,4,2.2,6.9,2.2c2.9,0,5.3-0.7,6.9-2.2c1.7-1.5,2.6-3.8,2.6-6.7V79
		H95.4z M116.8,78.9L116.8,78.9c-1,0.3-1.9,0.7-2.7,1.3c-0.8,0.6-1.5,1.3-2,2.2c-0.5,0.9-0.8,1.9-0.8,3.1c0,1,0.2,1.9,0.6,2.7
		c0.4,0.7,0.9,1.4,1.6,1.9l2.1,1.2c0,0,2.4,0.7,2.4,0.7c0,0,2.3,0.6,2.3,0.6l1.9,0.6l1.3,0.8c0.3,0.3,0.4,0.6,0.4,1
		c0,0.4-0.1,0.7-0.3,1c0,0-0.9,0.7-0.9,0.7l-1.2,0.4c0,0-1.3,0.1-1.3,0.1l-1.7-0.2l-1.3-0.6l-0.9-1c-0.2-0.4-0.3-0.9-0.3-1.6v-0.5
		h-5.5l0,0.5c0,1.4,0.2,2.6,0.8,3.6c0.5,1,1.2,1.8,2.1,2.5c0.9,0.6,1.9,1.1,3.1,1.4c1.1,0.3,2.3,0.4,3.5,0.4c1.5,0,2.8-0.2,3.9-0.5
		c1.1-0.3,2.1-0.9,2.9-1.5c0.8-0.6,1.4-1.4,1.8-2.3c0.4-0.9,0.6-1.9,0.6-2.9c0-1.3-0.3-2.3-0.8-3.2c-0.5-0.8-1.2-1.5-1.9-2l-2.2-1.1
		c0,0-1.7-0.4-1.7-0.4c0,0-3.2-0.8-3.2-0.8l-1.8-0.6l-0.7-0.5l-0.2-0.7l0.2-0.8l0.6-0.6l0.9-0.3c0,0,1-0.1,1-0.1l1.5,0.1l1.1,0.4
		l0.7,0.8l0.4,1.7l0.4,0.1h5v-0.5c0-1.3-0.3-2.4-0.8-3.4c-0.5-0.9-1.2-1.7-2-2.3c-0.8-0.6-1.8-1-2.9-1.3c-1.1-0.3-2.2-0.4-3.3-0.4
		C118.8,78.5,117.8,78.7,116.8,78.9z M139.1,79v22.1h5.6V79H139.1z M161.2,79.4c-1.3,0.6-2.5,1.4-3.4,2.5c-0.9,1-1.6,2.3-2.1,3.7
		c-0.5,1.4-0.7,2.9-0.7,4.6c0,1.6,0.2,3.1,0.7,4.5c0.5,1.4,1.2,2.6,2.1,3.6c0.9,1,2.1,1.9,3.4,2.4c1.3,0.6,2.9,0.9,4.6,0.9
		c1.4,0,2.6-0.2,3.7-0.6c1.1-0.4,2.1-1,3-1.8c0.9-0.8,1.5-1.8,2.1-2.9c0.5-1.1,0.8-2.4,1-3.7l0-0.5h-5.5l-0.1,0.4
		c-0.2,1.3-0.6,2.4-1.3,3.2c-0.7,0.8-1.7,1.1-3,1.1c-1,0-1.8-0.2-2.4-0.5c-0.7-0.4-1.2-0.9-1.6-1.5c-0.4-0.6-0.7-1.3-0.9-2.1
		l-0.3-2.5l0.3-2.6c0.2-0.8,0.5-1.5,0.9-2.2c0.4-0.6,0.9-1.1,1.6-1.5c0.7-0.4,1.5-0.5,2.4-0.5l1.5,0.3l1.3,0.7l0.9,1L170,87l0.4,0.1
		h5l-0.1-0.5c-0.1-1.3-0.5-2.4-1.1-3.4c-0.6-1-1.3-1.8-2.1-2.5c-0.9-0.7-1.8-1.2-2.9-1.5c-1.1-0.3-2.2-0.5-3.4-0.5
		C164.1,78.5,162.6,78.8,161.2,79.4z M218.2,79c0,0-3.6,11.3-4.3,13.5c-0.7-2.2-4.6-13.5-4.6-13.5h-7.4v22.1h5.3c0,0,0-8.9,0-12.6
		c1.2,3.5,4.4,12.6,4.4,12.6h4.3c0,0,3.2-9.1,4.4-12.7c0,3.7,0,12.7,0,12.7h5.3V79H218.2z M236.6,79v22.1h17v-4.9c0,0-10.5,0-11.4,0
		c0-0.7,0-3.5,0-4.2c0.9,0,10.2,0,10.2,0v-4.6c0,0-9.3,0-10.2,0c0-0.7,0-2.8,0-3.5c0.9,0,11.1,0,11.1,0V79H236.6z M269.1,79.4
		c-1.3,0.6-2.5,1.4-3.4,2.5c-0.9,1-1.6,2.3-2.1,3.7c-0.5,1.4-0.7,2.9-0.7,4.6c0,1.6,0.2,3.1,0.7,4.5c0.5,1.4,1.2,2.6,2.1,3.6
		c0.9,1,2.1,1.9,3.4,2.4c1.3,0.6,2.9,0.9,4.6,0.9c1.1,0,2.2-0.2,3.2-0.7c0.8-0.3,1.6-0.9,2.3-1.7c0.1,0.7,0.4,1.9,0.4,1.9h3.9V88.7
		h-9.9v4.4c0,0,3.6,0,4.5,0c-0.2,1.1-0.5,1.9-1.2,2.5c-0.7,0.7-1.8,1-3.2,1c-1,0-1.8-0.2-2.4-0.5c-0.7-0.4-1.2-0.9-1.6-1.5
		c-0.4-0.6-0.7-1.3-0.9-2.1l-0.3-2.5l0.3-2.6c0.2-0.8,0.5-1.5,0.9-2.2c0.4-0.6,0.9-1.1,1.6-1.5c0.6-0.4,1.5-0.5,2.4-0.5
		c1,0,1.9,0.3,2.6,0.8c0.7,0.5,1.2,1.3,1.4,2.4l0.1,0.4h5.4l-0.1-0.5c-0.1-1.3-0.5-2.4-1-3.4c-0.6-1-1.3-1.8-2.1-2.5
		c-0.9-0.7-1.8-1.2-2.9-1.5c-1.1-0.3-2.2-0.5-3.3-0.5C271.9,78.5,270.4,78.8,269.1,79.4z M302.6,86.1c0.5,1.6,1.7,4.9,2,5.8
		c-0.9,0-3.2,0-4.1,0C300.9,91.1,302.1,87.7,302.6,86.1z M300,79l-8.3,22.1h5.7c0,0,1.5-4.1,1.7-4.7c0.6,0,6.6,0,7.2,0
		c0.2,0.6,1.6,4.7,1.6,4.7h5.9L305.4,79H300z M327,78.9L327,78.9c-1,0.3-1.9,0.7-2.7,1.3c-0.8,0.6-1.5,1.3-2,2.2
		c-0.5,0.9-0.8,1.9-0.8,3.1c0,1,0.2,1.9,0.6,2.7c0.4,0.7,0.9,1.4,1.6,1.9l2.1,1.2l2.4,0.7c0,0,2.3,0.6,2.3,0.6l1.9,0.6l1.3,0.8
		c0.3,0.3,0.4,0.6,0.4,1c0,0.4-0.1,0.7-0.3,1l-0.9,0.7l-1.2,0.4c0,0-1.3,0.1-1.3,0.1l-1.7-0.2l-1.3-0.6l-0.9-1
		c-0.2-0.4-0.3-0.9-0.3-1.6v-0.5h-5.5l0,0.5c0,1.4,0.2,2.6,0.8,3.6c0.5,1,1.2,1.8,2.1,2.5c0.9,0.6,1.9,1.1,3.1,1.4
		c1.1,0.3,2.3,0.4,3.5,0.4c1.5,0,2.8-0.2,3.9-0.5c1.1-0.3,2.1-0.9,2.9-1.5c0.8-0.6,1.4-1.4,1.8-2.3c0.4-0.9,0.6-1.9,0.6-2.9
		c0-1.3-0.3-2.3-0.8-3.2c-0.5-0.8-1.2-1.5-1.9-2l-2.2-1.1l-1.7-0.4c0,0-3.2-0.8-3.2-0.8l-1.8-0.6l-0.7-0.5c0,0-0.2-0.7-0.2-0.7
		l0.2-0.8c0,0,0.6-0.6,0.6-0.6l0.9-0.3c0,0,1-0.1,1-0.1l1.5,0.1l1.1,0.4l0.7,0.8l0.4,1.7l0.4,0.1h5v-0.5c0-1.3-0.3-2.4-0.8-3.4
		c-0.5-0.9-1.2-1.7-2-2.3c-0.8-0.6-1.8-1-2.9-1.3c-1.1-0.3-2.2-0.4-3.3-0.4C329,78.5,328,78.7,327,78.9z M347.7,79v4.9
		c0,0,5.5,0,6.3,0c0,0.9,0,17.2,0,17.2h5.6c0,0,0-16.2,0-17.2c0.8,0,6.3,0,6.3,0V79H347.7z M382.9,96.2c-0.7-0.4-1.2-0.9-1.6-1.5
		c-0.4-0.6-0.7-1.3-0.9-2.1c0,0-0.3-2.5-0.3-2.5l0.3-2.6c0.2-0.8,0.5-1.5,0.9-2.2c0.4-0.6,0.9-1.1,1.6-1.5c0.6-0.4,1.5-0.5,2.4-0.5
		c1,0,1.8,0.2,2.4,0.5c0.7,0.4,1.2,0.9,1.6,1.5c0.4,0.6,0.7,1.4,0.9,2.2l0.3,2.6l-0.3,2.5c-0.2,0.8-0.5,1.5-0.9,2.1
		c-0.4,0.6-0.9,1.1-1.6,1.5c-0.7,0.4-1.5,0.5-2.4,0.5C384.3,96.7,383.5,96.5,382.9,96.2z M380.7,79.4c-1.3,0.6-2.5,1.4-3.4,2.5
		c-0.9,1-1.6,2.3-2.1,3.7c-0.5,1.4-0.7,2.9-0.7,4.6c0,1.6,0.2,3.1,0.7,4.5c0.5,1.4,1.2,2.6,2.1,3.6c0.9,1,2.1,1.9,3.4,2.4
		c1.3,0.6,2.9,0.9,4.6,0.9c1.7,0,3.2-0.3,4.6-0.9c1.3-0.6,2.5-1.4,3.4-2.4c0.9-1,1.6-2.3,2.1-3.6c0.5-1.4,0.7-2.9,0.7-4.5
		c0-1.6-0.2-3.2-0.7-4.6c-0.5-1.4-1.2-2.6-2.1-3.7c-0.9-1.1-2.1-1.9-3.4-2.5c-1.3-0.6-2.9-0.9-4.6-0.9
		C383.6,78.5,382.1,78.8,380.7,79.4z M416.5,83.6c0.9,0,1.6,0.2,2.1,0.6c0.4,0.4,0.6,1,0.6,1.9c0,0.9-0.2,1.6-0.6,1.9
		c-0.4,0.4-1.1,0.6-2.1,0.6c0,0-3.8,0-4.6,0c0-0.8,0-4.2,0-5C412.7,83.6,416.5,83.6,416.5,83.6z M406.3,79v22.1h5.6c0,0,0-7.4,0-8.2
		c0.8,0,4.2,0,4.2,0c1,0,1.8,0.2,2.2,0.6c0.4,0.4,0.7,1.2,0.9,2.1l0.3,2.6c0.1,1,0.2,1.8,0.5,2.5l0.1,0.3h5.7l-0.4-0.8l-0.4-0.9
		c0,0-0.2-1.3-0.2-1.3l-0.1-1.4c0,0-0.1-1.2-0.1-1.2c0,0-0.2-1.7-0.2-1.7l-0.6-1.6c0,0-1-1.3-1-1.3s-0.4-0.2-0.8-0.4
		c0.9-0.5,1.6-1.1,2-1.8c0.6-1,0.8-2.1,0.8-3.5c0-0.9-0.2-1.7-0.5-2.4c-0.3-0.8-0.8-1.4-1.4-2c-0.6-0.6-1.3-1-2.1-1.4
		c-0.8-0.3-1.7-0.5-2.7-0.5H406.3z M435.6,79v22.1h17v-4.9c0,0-10.5,0-11.4,0c0-0.7,0-3.5,0-4.2c0.9,0,10.2,0,10.2,0v-4.6
		c0,0-9.3,0-10.2,0c0-0.7,0-2.8,0-3.5c0.9,0,11.1,0,11.1,0V79H435.6z M63.8,79c0,0-3.6,11.3-4.3,13.5C58.7,90.3,54.8,79,54.8,79
		h-7.4v22.1h5.3c0,0,0-8.9,0-12.6c1.2,3.5,4.4,12.6,4.4,12.6h4.3c0,0,3.2-9.1,4.4-12.7c0,3.7,0,12.7,0,12.7h5.3V79H63.8z"/>
	<path class="st0" d="M137.9,49c-1.2,1.6-3,2.3-5.4,2.3h-4.3V31h4c2.3,0,4,0.7,5.3,2.2c1.7,1.9,2.5,4.6,2.5,8
		C140,44.5,139.3,47.1,137.9,49 M84.9,49.1l1.7-7.6l1.2-5.9c0-0.1,0.1-0.4,0.2-0.9c0.1-0.5,0.2-1.4,0.4-2.7c0.1-0.7,0.2-1.3,0.3-1.8
		c0.1-0.5,0.2-1,0.2-1.5l0.5,4.6c0.1,0.9,0.2,1.7,0.3,2.3c0.1,0.6,0.2,1.1,0.2,1.5c0.5,3.2,0.8,5,0.9,5.5c0.1,0.5,0.1,0.8,0.2,0.9
		l1.1,5.7H84.9z M159.1,65.5V16.8h32.2v11.7h-14.9v6.2h13.3v11.7h-13.3v7.5h14.9v11.7H159.1z M147.3,22c-4.8-3.5-11.4-5.2-20-5.2
		h-15v45.1L99.8,16.8H78.6L65.9,56.9l-5.1-40.1H39.9l-4.3,17.6c-0.6,2.4-1.1,5.2-1.5,8.3c-0.2-1.8-0.4-3.6-0.6-5.1
		c-0.2-1.6-0.5-3-0.8-4.4L29,16.8H7.5L0,65.5h18.4L20,43.4l0.4-9c0.2,1.4,0.3,2.4,0.4,2.8c0.5,3.1,0.8,5.2,1.1,6.5l5.8,21.7h12
		l6.9-21.7c0.4-1.4,0.7-2.9,1-4.5c0.3-1.5,0.5-3.2,0.7-4.9l0.6,8.9l0.7,22.2h31.6l1.4-6.2h11.7l1.3,6.2h33.1
		c8.9,0,15.7-1.9,20.2-5.6c5.3-4.4,7.9-10.6,7.9-18.7C156.7,33,153.6,26.6,147.3,22z"/>
	<path class="st0" d="M300,55.2c0.3,0,0.6,0,0.8,0c0.2,0,0.4,0,0.6,0c2.1,0,3.7-0.4,5-1.3c1.2-0.9,1.9-2.1,1.9-3.6
		c0-1.5-0.6-2.7-1.9-3.5c-1.2-0.8-2.9-1.3-5.1-1.3H300V55.2z M300,35.4h1.1c2,0,3.6-0.4,4.8-1.1c1.2-0.7,1.7-1.8,1.7-3.1
		c0-2.8-2-4.2-5.9-4.2c-0.2,0-0.4,0-0.7,0c-0.3,0-0.6,0-1,0V35.4z M383,49.1l1.7-7.6l1.2-5.9c0-0.1,0.1-0.4,0.2-0.9
		c0.1-0.5,0.2-1.4,0.4-2.7c0.1-0.7,0.2-1.2,0.3-1.8c0.1-0.5,0.2-1,0.2-1.5l0.5,4.6c0.1,0.9,0.2,1.7,0.3,2.3c0.1,0.6,0.1,1.1,0.2,1.5
		c0.5,3.2,0.8,5,0.8,5.5c0.1,0.5,0.1,0.8,0.2,0.9l1.1,5.7H383z M348.7,37c-1.3,1.2-2.9,1.7-4.8,1.7h-1.1V27.1h0.6
		c4.8,0,7.3,1.8,7.3,5.5C350.6,34.3,350,35.8,348.7,37z M449.4,16.8h-41V31h15.2l-15.2,26.8l-11-41H377l-12.2,40.1l-7.1-11.6
		c6.4-2.2,9.6-6.3,9.6-12.2c0-5.5-2.4-9.8-7.1-12.7c-3.7-2.3-9.4-3.5-16.9-3.5H326v48.7h16.6v-17l-0.1-3.2c0.3,0.7,0.5,1.2,0.7,1.7
		c0.2,0.5,0.3,0.9,0.4,1.2l8.3,17.3h27.4l1.4-6.2H392l1.2,6.2h54V51.2l-16.7,0l18.8-33V16.8z M466,65.5h-16.3V16.8H466V65.5z
		 M500,65.5h-31.2V16.8h16v33.2H500V65.5z M285.2,65.5V16.8h17.6c7.3,0,12.7,1.3,16.2,3.8c3.6,2.6,5.3,5.9,5.3,10
		c0,6.1-3.8,9.4-11.5,9.9c4.4,0.5,7.6,1.6,9.6,3.4c2,1.8,3.1,4.3,3.1,7.6c0,4.2-1.7,7.5-5.2,10.1c-3.4,2.6-7.9,3.8-13.5,3.8H285.2z"
		/>
	<path class="st1" d="M228.7,20.4c0,3.6-3.5,6.6-7.8,6.6s-7.8-3-7.8-6.6c0-3.6,3.5-6.6,7.8-6.6S228.7,16.8,228.7,20.4 M211.6,25.5
		c0,0-8.9,35.6-8,36.5c2.5,2.6,8.4,8.2,10.7,9.4c2.3,1.2,24.6-30.4,26.6-31.8c0.7-0.5,0,16.7,0,16.7s7.8,5.7,11,8.2
		c1.3,1,9.2-24.9,24.3-35.9c0,0-10.7-9.2-11.6-9.4c-1.9-0.4-8,7.2-8.5,8.1c-0.5,0.9,1.3-12.3,4-19.4c0,0-7.8-7.2-8.7-8
		c-0.9-0.7-30.4,43.6-32.2,45.6c-1.8,2,3.4-12.1,3.4-12.1S212.7,25.9,211.6,25.5z"/>
</g>
</svg>
